<?xml version="1.0" encoding="UTF-8"?>
<svg xmlns="http://www.w3.org/2000/svg" width="313" height="300" viewBox="0 0 313 300" fill="none">
  <path d="M13.6282 272.923V275.702H3.22773V284.13H13.0903V286.91H3.22773V296.503H14.0765V299.282H0V272.833H13.6282V272.923Z" fill="#CDAF71"></path>
  <path d="M33.5326 272.923L40.8847 299.372H37.4776L35.5051 292.11H27.0771L25.1046 299.372H21.6976L29.3186 272.923H33.5326ZM31.1118 276.33C31.0221 276.778 30.9325 277.316 30.7532 277.854L27.7047 289.42H34.8775L31.9187 277.944C31.7394 277.316 31.6498 276.868 31.5601 276.509C31.4704 276.151 31.3808 275.613 31.2911 275.075C31.2911 275.433 31.2015 275.882 31.1118 276.33Z" fill="#CDAF71"></path>
  <path d="M52.0024 291.124V291.572C52.0024 292.379 52.0921 293.096 52.1817 293.814C52.361 294.531 52.5403 295.069 52.899 295.607C53.2576 296.145 53.7059 296.503 54.3335 296.862C54.9611 297.221 55.6784 297.31 56.575 297.31C58.0992 297.31 59.3545 296.862 60.1614 296.055C60.9683 295.248 61.4166 294.082 61.4166 292.558C61.4166 291.303 61.1476 290.317 60.52 289.6C59.8924 288.882 58.9062 288.255 57.5613 287.806L54.9611 286.91C52.899 286.192 51.3748 285.296 50.4782 284.13C49.5816 282.965 49.0436 281.53 49.0436 279.647C49.0436 277.316 49.6713 275.613 51.0161 274.357C52.361 273.102 54.2439 272.475 56.6647 272.475C58.9958 272.475 60.8787 273.102 62.0442 274.268C63.2995 275.433 63.9271 277.227 63.9271 279.468V279.737H60.6993C60.6993 279.02 60.6097 278.392 60.52 277.854C60.4304 277.316 60.1614 276.778 59.8924 276.33C59.5338 275.882 59.1751 275.613 58.6372 275.344C58.0992 275.164 57.4716 274.985 56.575 274.985C55.2301 274.985 54.1542 275.344 53.3473 276.061C52.63 276.778 52.2714 277.854 52.2714 279.199C52.2714 280.454 52.63 281.441 53.2576 282.247C53.9749 282.965 55.0508 283.682 56.6647 284.22L59.1751 285.117C60.0717 285.386 60.8787 285.744 61.5959 286.192C62.3132 286.641 62.8512 287.089 63.2995 287.627C63.7478 288.165 64.1064 288.793 64.3754 289.6C64.6444 290.317 64.734 291.213 64.734 292.2C64.734 294.62 64.0167 296.503 62.5822 297.848C61.1476 299.193 59.0855 299.821 56.4854 299.821C53.7059 299.821 51.6438 299.103 50.4782 297.759C49.223 296.414 48.685 294.351 48.685 291.572V291.124H52.0024Z" fill="#CDAF71"></path>
  <path d="M90.0179 272.923V275.702H83.3832V299.283H80.1554V275.702H73.5206V272.923H90.0179Z" fill="#CDAF71"></path>
  <path d="M99.2528 286.103C99.2528 281.441 99.9701 277.944 101.315 275.792C102.66 273.64 104.901 272.475 107.86 272.475C110.729 272.475 112.881 273.551 114.226 275.613C115.571 277.675 116.198 280.992 116.198 285.475C116.198 286.461 116.198 287.537 116.109 288.703C116.019 289.779 115.929 290.944 115.75 291.931C115.571 293.007 115.302 293.993 114.943 294.979C114.585 295.965 114.047 296.772 113.419 297.49C112.791 298.207 111.984 298.834 111.088 299.193C110.102 299.641 108.936 299.821 107.591 299.821C106.336 299.821 105.26 299.641 104.363 299.193C103.467 298.745 102.66 298.207 102.032 297.49C101.405 296.772 100.956 295.965 100.508 295.069C100.149 294.172 99.8804 293.186 99.7011 292.2C99.5218 291.213 99.4321 290.137 99.3425 289.062C99.2528 288.075 99.2528 287.089 99.2528 286.103ZM102.57 286.192C102.57 290.138 102.929 293.007 103.736 294.71C104.543 296.414 105.798 297.31 107.591 297.31C108.488 297.31 109.295 297.131 109.922 296.683C110.55 296.234 111.177 295.607 111.536 294.71C111.984 293.814 112.253 292.648 112.522 291.303C112.702 289.958 112.791 288.255 112.791 286.282C112.791 284.22 112.702 282.516 112.522 281.082C112.343 279.647 112.074 278.482 111.626 277.585C111.177 276.689 110.729 276.061 110.012 275.613C109.384 275.254 108.577 274.985 107.681 274.985C106.784 274.985 106.067 275.164 105.439 275.523C104.812 275.882 104.363 276.42 103.915 277.047C103.556 277.675 103.198 278.392 103.019 279.109C102.839 279.916 102.66 280.723 102.57 281.53C102.481 282.337 102.391 283.144 102.391 283.951C102.57 284.848 102.57 285.565 102.57 286.192Z" fill="#CDAF71"></path>
  <path d="M134.937 272.923C137.268 272.923 139.062 273.461 140.406 274.537C141.751 275.613 142.379 277.406 142.379 279.827C142.379 281.53 142.02 282.965 141.303 284.041C140.586 285.117 139.51 285.923 138.165 286.192C139.062 286.372 139.779 286.641 140.227 286.999C140.765 287.358 141.124 287.806 141.393 288.434C141.572 288.703 141.662 289.062 141.751 289.331C141.841 289.599 141.931 290.048 141.931 290.496C142.02 290.944 142.02 291.572 142.11 292.289C142.11 293.007 142.2 293.993 142.2 295.158C142.2 295.517 142.2 295.876 142.2 296.234C142.2 296.593 142.289 297.041 142.379 297.4C142.469 297.758 142.558 298.117 142.738 298.476C142.917 298.834 143.186 299.103 143.545 299.283H139.6C139.42 298.924 139.241 298.476 139.062 297.938C138.972 297.4 138.882 296.593 138.793 295.517L138.703 293.276C138.703 292.469 138.613 291.841 138.613 291.303C138.524 290.765 138.434 290.317 138.344 289.958C138.255 289.599 138.075 289.241 137.986 289.062C137.806 288.793 137.627 288.613 137.358 288.344C136.82 287.896 136.192 287.627 135.475 287.627C134.758 287.537 134.041 287.537 133.413 287.537H130.185V299.372H126.958V272.923H134.937ZM130.365 285.027H133.861C134.399 285.027 134.848 285.027 135.386 284.937C135.924 284.848 136.282 284.758 136.551 284.668C137.358 284.399 137.986 283.861 138.434 283.054C138.882 282.247 139.151 281.261 139.151 280.096C139.151 279.199 139.062 278.482 138.793 277.854C138.524 277.316 138.165 276.778 137.717 276.42C137.268 276.061 136.73 275.792 136.103 275.702C135.475 275.523 134.758 275.523 134.041 275.523H130.454V285.027H130.365Z" fill="#CDAF71"></path>
  <path d="M156.814 272.923V299.372H153.586V272.923H156.814Z" fill="#CDAF71"></path>
  <path d="M177.615 272.923L184.967 299.372H181.56L179.588 292.11H171.16L169.187 299.372H165.78L173.401 272.923H177.615ZM175.194 276.33C175.105 276.778 175.015 277.316 174.836 277.854L171.787 289.42H178.96L176.091 277.854C175.912 277.226 175.822 276.778 175.732 276.42C175.643 276.061 175.553 275.523 175.463 274.985C175.374 275.433 175.284 275.882 175.194 276.33Z" fill="#CDAF71"></path>
  <path d="M216.169 272.923C216.975 272.923 217.782 272.923 218.41 273.012C219.038 273.102 219.576 273.192 220.114 273.281C220.652 273.371 221.01 273.55 221.458 273.73C221.907 273.909 222.265 274.178 222.624 274.357C223.969 275.254 224.865 276.599 225.493 278.392C226.121 280.185 226.39 282.516 226.39 285.385C226.39 286.282 226.39 287.268 226.3 288.344C226.21 289.33 226.121 290.406 225.941 291.392C225.762 292.379 225.493 293.365 225.045 294.262C224.686 295.158 224.148 296.055 223.61 296.772C222.714 297.848 221.727 298.565 220.562 298.834C219.396 299.103 218.141 299.282 216.796 299.282H210.072V272.833H216.169V272.923ZM213.21 296.772H215.989C217.244 296.772 218.32 296.682 219.038 296.413C219.755 296.144 220.383 295.696 220.92 295.158C222.265 293.544 222.983 290.406 222.983 285.654C222.983 283.323 222.803 281.351 222.355 280.006C221.907 278.571 221.279 277.495 220.383 276.778C219.845 276.33 219.217 276.061 218.5 275.881C217.693 275.702 216.617 275.612 215.182 275.612H213.21V296.772Z" fill="#CDAF71"></path>
  <path d="M242.977 272.923L246.204 285.206C246.653 286.999 247.101 288.792 247.549 290.586C247.998 292.379 248.267 294.262 248.446 296.055H248.536C248.715 294.531 248.894 293.006 249.163 291.482C249.432 289.958 249.791 288.523 250.149 287.089L253.736 272.833H259.026V299.282H255.888V280.723C255.888 279.199 255.888 278.033 255.977 277.137C256.067 276.24 256.067 275.433 256.157 274.895H255.977C255.888 275.254 255.798 275.523 255.798 275.792C255.708 276.061 255.708 276.33 255.619 276.599C255.529 276.868 255.529 277.226 255.439 277.585C255.35 277.944 255.26 278.392 255.081 278.93L249.88 299.282H246.832L241.811 279.916C241.721 279.378 241.542 278.93 241.452 278.392C241.363 277.854 241.183 277.316 241.094 276.868C241.004 276.419 240.915 275.971 240.825 275.612C240.735 275.254 240.735 274.985 240.646 274.895H240.466C240.556 276.15 240.646 277.316 240.646 278.571C240.735 279.826 240.735 281.082 240.735 282.247V299.282H237.687V272.833H242.977V272.923Z" fill="#CDAF71"></path>
  <path d="M286.461 290.316C286.372 291.661 286.282 293.006 285.923 294.172C285.565 295.337 285.206 296.324 284.579 297.22C283.951 298.117 283.144 298.744 282.158 299.282C281.172 299.82 279.916 300 278.482 300C276.509 300 275.075 299.551 273.909 298.744C272.833 297.938 271.937 296.862 271.399 295.517C270.861 294.262 270.502 292.737 270.323 291.213C270.143 289.599 270.143 288.075 270.143 286.64C270.143 285.116 270.233 283.502 270.323 281.889C270.502 280.275 270.861 278.75 271.399 277.316C271.937 275.971 272.833 274.805 273.909 273.909C275.075 273.012 276.599 272.564 278.571 272.564C281.082 272.564 282.965 273.281 284.31 274.626C285.565 276.061 286.282 278.033 286.372 280.723H283.144C283.144 280.006 283.054 279.288 282.875 278.661C282.696 278.033 282.516 277.406 282.158 276.868C281.799 276.33 281.351 275.971 280.813 275.612C280.275 275.254 279.558 275.164 278.661 275.164C277.764 275.164 277.047 275.343 276.42 275.792C275.792 276.15 275.344 276.688 274.985 277.316C274.626 277.944 274.268 278.661 274.088 279.468C273.909 280.275 273.73 281.082 273.64 281.978C273.551 282.875 273.551 283.682 273.551 284.489C273.551 285.296 273.551 286.013 273.551 286.64C273.551 287.268 273.551 287.896 273.551 288.703C273.551 289.51 273.64 290.227 273.73 291.034C273.819 291.841 273.999 292.648 274.178 293.365C274.357 294.172 274.626 294.799 275.075 295.427C275.523 296.055 275.971 296.503 276.509 296.862C277.137 297.22 277.854 297.4 278.661 297.4C281.62 297.4 283.234 295.068 283.413 290.406H286.461V290.316Z" fill="#CDAF71"></path>
  <path d="M312.821 290.316C312.732 291.661 312.642 293.006 312.283 294.172C311.925 295.337 311.566 296.324 310.938 297.22C310.311 298.117 309.504 298.744 308.518 299.282C307.531 299.82 306.276 300 304.842 300C302.869 300 301.435 299.551 300.269 298.744C299.193 297.938 298.296 296.862 297.759 295.517C297.221 294.262 296.862 292.737 296.683 291.213C296.503 289.599 296.503 288.075 296.503 286.64C296.503 285.116 296.593 283.502 296.683 281.889C296.862 280.275 297.221 278.75 297.759 277.316C298.296 275.971 299.193 274.805 300.269 273.909C301.435 273.012 302.959 272.564 304.931 272.564C307.442 272.564 309.325 273.281 310.669 274.626C311.925 276.061 312.642 278.033 312.732 280.723H309.325C309.325 280.006 309.235 279.288 309.056 278.661C308.876 278.033 308.697 277.406 308.338 276.868C307.98 276.33 307.531 275.971 306.993 275.612C306.455 275.254 305.738 275.164 304.842 275.164C303.945 275.164 303.228 275.343 302.6 275.792C301.973 276.15 301.524 276.688 301.166 277.316C300.807 277.944 300.448 278.661 300.269 279.468C300.09 280.275 299.91 281.082 299.821 281.978C299.731 282.875 299.731 283.682 299.731 284.489C299.731 285.296 299.731 286.013 299.731 286.64C299.731 287.268 299.731 287.896 299.731 288.703C299.731 289.51 299.821 290.227 299.91 291.034C300 291.841 300.179 292.648 300.359 293.365C300.538 294.172 300.807 294.799 301.255 295.427C301.704 296.055 302.152 296.503 302.69 296.862C303.317 297.22 304.035 297.4 304.842 297.4C307.8 297.4 309.414 295.068 309.594 290.406H312.821V290.316Z" fill="#CDAF71"></path>
  <path d="M158.159 110.639C158.697 100.777 158.428 91.7213 159.773 82.845C161.297 72.8032 170.532 65.6304 180.663 65.3614C188.285 65.1821 195.816 65.3614 203.706 65.3614C203.706 74.5963 204.603 83.383 203.527 91.9006C202.092 102.66 193.933 109.743 182.995 110.639C175.194 111.177 167.304 110.639 158.159 110.639Z" fill="url(#paint0_linear_31_6562)"></path>
  <path d="M151.435 0C157.711 6.27615 163.628 11.566 168.828 17.5732C176.36 26.2702 176.001 39.0915 168.201 47.6091C163.09 53.2576 157.531 58.4579 151.524 64.465C145.158 57.8302 138.255 51.8231 132.875 44.6503C126.151 35.6844 128.123 23.6701 136.103 15.78C141.213 10.7591 145.965 5.64854 151.435 0Z" fill="url(#paint1_linear_31_6562)"></path>
  <path d="M99.3426 65.4513C108.308 65.4513 116.736 64.8237 124.985 65.6306C136.103 66.7065 143.993 75.9414 144.62 87.7765C144.979 94.0526 144.889 100.418 144.531 106.695C144.441 108.129 142.558 110.55 141.482 110.55C133.503 110.64 125.433 110.909 117.543 109.833C107.322 108.398 100.06 100.239 99.3426 90.1973C98.8943 82.2176 99.3426 74.1482 99.3426 65.4513Z" fill="url(#paint2_linear_31_6562)"></path>
  <path d="M158.876 225.852C158.966 215.182 156.635 204.603 160.669 194.561C164.345 185.415 171.877 181.022 181.65 180.663C187.747 180.484 193.933 180.394 200.03 180.574C201.375 180.663 203.885 182.277 203.885 183.084C203.796 192.14 204.154 201.285 202.63 210.161C201.195 218.589 191.781 225.403 182.995 225.672C175.194 226.031 167.394 225.852 158.876 225.852Z" fill="url(#paint3_linear_31_6562)"></path>
  <path d="M99.2529 179.946C109.474 180.484 118.978 180.036 128.213 181.739C136.462 183.264 142.558 189.361 143.724 198.057C144.889 206.934 144.71 216.079 145.158 225.583C135.475 225.583 126.689 226.3 118.081 225.404C107.95 224.328 99.9702 215.003 99.3426 204.782C98.9839 198.685 99.2529 192.499 99.2529 186.402C99.2529 184.788 99.2529 183.084 99.2529 179.946Z" fill="url(#paint4_linear_31_6562)"></path>
  <path d="M144.531 167.752C135.206 167.752 126.33 168.29 117.454 167.573C108.488 166.856 100.149 157.71 99.4322 148.207C98.8942 140.137 99.3425 131.978 99.3425 123.371C108.667 123.371 117.633 122.833 126.42 123.55C134.937 124.268 143.365 133.054 144.351 142.379C145.158 150.627 144.531 158.966 144.531 167.752Z" fill="url(#paint5_linear_31_6562)"></path>
  <path d="M204.513 123.64C204.065 132.965 204.513 142.11 202.899 150.897C200.837 162.015 192.499 167.842 181.291 167.842C174.208 167.842 167.125 167.753 160.042 167.663C159.683 167.663 159.414 167.394 158.159 166.766C158.607 157.98 158.338 148.655 159.863 139.689C161.566 129.737 170.711 123.282 180.932 123.282C187.836 123.282 194.74 123.282 201.644 123.282C202.092 123.282 202.63 123.371 204.513 123.64Z" fill="url(#paint6_linear_31_6562)"></path>
  <path d="M257.86 100.956C257.86 108.936 258.129 116.019 257.77 123.102C257.233 133.503 248.715 141.213 237.149 141.841C231.769 142.11 226.3 142.2 220.921 141.751C219.486 141.662 217.065 139.42 217.065 138.075C216.796 131.62 216.707 125.075 217.513 118.619C218.858 107.95 226.928 101.136 237.776 100.956C244.232 100.867 250.777 100.956 257.86 100.956Z" fill="url(#paint7_linear_31_6562)"></path>
  <path d="M257.86 153.407C257.86 161.656 258.219 169.098 257.77 176.45C257.143 185.236 249.522 192.678 240.646 193.485C234.19 194.113 227.645 194.023 221.189 194.292C218.5 194.382 216.975 193.575 217.065 190.526C217.334 184.071 216.886 177.436 217.693 171.07C218.948 160.221 226.928 153.497 237.776 153.407C244.142 153.407 250.598 153.407 257.86 153.407Z" fill="url(#paint8_linear_31_6562)"></path>
  <path d="M85.7143 194.65C76.838 194.202 68.679 194.202 60.6994 193.305C53.5266 192.409 46.7125 184.608 45.6366 177.256C45.3676 175.642 45.4573 173.939 45.4573 172.235C45.4573 166.138 45.4573 160.042 45.4573 153.586C53.8853 153.586 61.8649 152.958 69.7549 153.765C78.8105 154.662 85.535 163.09 85.7143 172.325C85.8936 179.408 85.7143 186.401 85.7143 194.65Z" fill="url(#paint9_linear_31_6562)"></path>
  <path d="M85.7143 142.199C77.1967 141.841 69.217 141.841 61.327 140.944C53.2577 140.048 46.5332 132.516 45.6366 124.447C45.4573 122.833 45.5469 121.13 45.5469 119.426C45.5469 113.509 45.5469 107.591 45.5469 100.777C56.7544 102.122 68.4101 97.3698 78.0036 105.35C81.5003 108.308 84.7281 113.15 85.3557 117.633C86.5212 125.344 85.7143 133.234 85.7143 142.199Z" fill="url(#paint10_linear_31_6562)"></path>
  <defs>
    <linearGradient id="paint0_linear_31_6562" x1="-2.59337e-05" y1="149.96" x2="312.778" y2="149.96" gradientUnits="userSpaceOnUse">
      <stop stop-color="#F9E181"></stop>
      <stop offset="0.9988" stop-color="#835C2D"></stop>
    </linearGradient>
    <linearGradient id="paint1_linear_31_6562" x1="-8.99234e-06" y1="149.96" x2="312.778" y2="149.96" gradientUnits="userSpaceOnUse">
      <stop stop-color="#F9E181"></stop>
      <stop offset="0.9988" stop-color="#835C2D"></stop>
    </linearGradient>
    <linearGradient id="paint2_linear_31_6562" x1="5.78682e-05" y1="149.96" x2="312.778" y2="149.96" gradientUnits="userSpaceOnUse">
      <stop stop-color="#F9E181"></stop>
      <stop offset="0.9988" stop-color="#835C2D"></stop>
    </linearGradient>
    <linearGradient id="paint3_linear_31_6562" x1="2.51106e-05" y1="149.96" x2="312.778" y2="149.96" gradientUnits="userSpaceOnUse">
      <stop stop-color="#F9E181"></stop>
      <stop offset="0.9988" stop-color="#835C2D"></stop>
    </linearGradient>
    <linearGradient id="paint4_linear_31_6562" x1="7.1894e-05" y1="149.96" x2="312.778" y2="149.96" gradientUnits="userSpaceOnUse">
      <stop stop-color="#F9E181"></stop>
      <stop offset="0.9988" stop-color="#835C2D"></stop>
    </linearGradient>
    <linearGradient id="paint5_linear_31_6562" x1="3.86597e-05" y1="149.96" x2="312.778" y2="149.96" gradientUnits="userSpaceOnUse">
      <stop stop-color="#F9E181"></stop>
      <stop offset="0.9988" stop-color="#835C2D"></stop>
    </linearGradient>
    <linearGradient id="paint6_linear_31_6562" x1="-4.07873e-05" y1="149.96" x2="312.778" y2="149.96" gradientUnits="userSpaceOnUse">
      <stop stop-color="#F9E181"></stop>
      <stop offset="0.9988" stop-color="#835C2D"></stop>
    </linearGradient>
    <linearGradient id="paint7_linear_31_6562" x1="5.96841e-05" y1="149.96" x2="312.778" y2="149.96" gradientUnits="userSpaceOnUse">
      <stop stop-color="#F9E181"></stop>
      <stop offset="0.9988" stop-color="#835C2D"></stop>
    </linearGradient>
    <linearGradient id="paint8_linear_31_6562" x1="5.0086e-05" y1="149.96" x2="312.778" y2="149.96" gradientUnits="userSpaceOnUse">
      <stop stop-color="#F9E181"></stop>
      <stop offset="0.9988" stop-color="#835C2D"></stop>
    </linearGradient>
    <linearGradient id="paint9_linear_31_6562" x1="1.97832e-05" y1="149.96" x2="312.778" y2="149.96" gradientUnits="userSpaceOnUse">
      <stop stop-color="#F9E181"></stop>
      <stop offset="0.9988" stop-color="#835C2D"></stop>
    </linearGradient>
    <linearGradient id="paint10_linear_31_6562" x1="3.27497e-05" y1="149.96" x2="312.778" y2="149.96" gradientUnits="userSpaceOnUse">
      <stop stop-color="#F9E181"></stop>
      <stop offset="0.9988" stop-color="#835C2D"></stop>
    </linearGradient>
  </defs>
</svg>
