<?xml version="1.0" encoding="UTF-8"?>
<svg xmlns="http://www.w3.org/2000/svg" width="177" height="170" viewBox="0 0 177 170" fill="none">
  <path d="M7.71109 154.425V155.997H1.82631V160.766H7.40671V162.339H1.82631V167.767H7.96475V169.34H0V154.374H7.71109V154.425Z" fill="#CDAF71"></path>
  <path d="M18.9733 154.425L23.1333 169.39H21.2055L20.0894 165.281H15.3207L14.2046 169.39H12.2769L16.589 154.425H18.9733ZM17.6036 156.353C17.5529 156.606 17.5021 156.911 17.4007 157.215L15.6758 163.759H19.7343L18.0602 157.266C17.9587 156.911 17.908 156.657 17.8573 156.454C17.8065 156.251 17.7558 155.947 17.7051 155.642C17.7051 155.845 17.6543 156.099 17.6036 156.353Z" fill="#CDAF71"></path>
  <path d="M29.4239 164.723V164.977C29.4239 165.433 29.4746 165.839 29.5254 166.245C29.6268 166.651 29.7283 166.955 29.9312 167.26C30.1341 167.564 30.3878 167.767 30.7429 167.97C31.098 168.173 31.5039 168.224 32.0112 168.224C32.8736 168.224 33.5838 167.97 34.0404 167.513C34.497 167.057 34.7507 166.397 34.7507 165.535C34.7507 164.825 34.5985 164.267 34.2434 163.861C33.8882 163.455 33.3302 163.1 32.5692 162.846L31.098 162.339C29.9312 161.933 29.0688 161.426 28.5615 160.766C28.0542 160.107 27.7498 159.295 27.7498 158.23C27.7498 156.911 28.1049 155.947 28.8659 155.236C29.6268 154.526 30.6922 154.171 32.0619 154.171C33.3809 154.171 34.4463 154.526 35.1058 155.186C35.816 155.845 36.1711 156.86 36.1711 158.128V158.28H34.3448C34.3448 157.874 34.2941 157.519 34.2434 157.215C34.1926 156.911 34.0404 156.606 33.8882 156.353C33.6853 156.099 33.4824 155.947 33.178 155.795C32.8736 155.693 32.5185 155.592 32.0112 155.592C31.2502 155.592 30.6415 155.795 30.1849 156.2C29.779 156.606 29.5761 157.215 29.5761 157.976C29.5761 158.686 29.779 159.244 30.1342 159.701C30.54 160.107 31.1488 160.513 32.0619 160.817L33.4824 161.324C33.9897 161.476 34.4463 161.679 34.8521 161.933C35.258 162.187 35.5624 162.44 35.816 162.745C36.0697 163.049 36.2726 163.404 36.4248 163.861C36.577 164.267 36.6277 164.774 36.6277 165.332C36.6277 166.702 36.2219 167.767 35.4102 168.528C34.5985 169.289 33.4317 169.644 31.9605 169.644C30.3878 169.644 29.221 169.238 28.5615 168.477C27.8513 167.716 27.5469 166.549 27.5469 164.977V164.723H29.4239Z" fill="#CDAF71"></path>
  <path d="M50.9338 154.425V155.997H47.1797V169.34H45.3534V155.997H41.5993V154.425H50.9338Z" fill="#CDAF71"></path>
  <path d="M56.1591 161.882C56.1591 159.244 56.5649 157.266 57.3259 156.048C58.0868 154.831 59.3551 154.171 61.0292 154.171C62.6526 154.171 63.8702 154.78 64.6311 155.947C65.3921 157.114 65.7472 158.991 65.7472 161.527C65.7472 162.085 65.7472 162.694 65.6965 163.353C65.6457 163.962 65.595 164.622 65.4935 165.18C65.3921 165.789 65.2399 166.347 65.037 166.905C64.834 167.463 64.5297 167.919 64.1745 168.325C63.8194 168.731 63.3628 169.086 62.8555 169.289C62.2975 169.543 61.638 169.644 60.877 169.644C60.1668 169.644 59.558 169.543 59.0507 169.289C58.5434 169.035 58.0868 168.731 57.7317 168.325C57.3766 167.919 57.1229 167.463 56.8693 166.955C56.6664 166.448 56.5142 165.89 56.4127 165.332C56.3113 164.774 56.2605 164.165 56.2098 163.556C56.1591 162.998 56.1591 162.44 56.1591 161.882ZM58.0361 161.933C58.0361 164.165 58.239 165.789 58.6956 166.752C59.1522 167.716 59.8624 168.224 60.877 168.224C61.3843 168.224 61.8409 168.122 62.196 167.868C62.5511 167.615 62.9063 167.26 63.1092 166.752C63.3628 166.245 63.515 165.586 63.6672 164.825C63.7687 164.064 63.8194 163.1 63.8194 161.984C63.8194 160.817 63.7687 159.853 63.6672 159.041C63.5658 158.23 63.4136 157.57 63.1599 157.063C62.9063 156.555 62.6526 156.2 62.2468 155.947C61.8916 155.744 61.4351 155.592 60.9278 155.592C60.4205 155.592 60.0146 155.693 59.6595 155.896C59.3044 156.099 59.0507 156.403 58.7971 156.758C58.5941 157.114 58.3912 157.519 58.2898 157.925C58.1883 158.382 58.0868 158.838 58.0361 159.295C57.9854 159.752 57.9346 160.208 57.9346 160.665C58.0361 161.172 58.0361 161.578 58.0361 161.933Z" fill="#CDAF71"></path>
  <path d="M76.3499 154.425C77.6689 154.425 78.6836 154.729 79.4445 155.338C80.2055 155.947 80.5606 156.961 80.5606 158.331C80.5606 159.295 80.3577 160.107 79.9518 160.715C79.546 161.324 78.9372 161.781 78.1763 161.933C78.6836 162.034 79.0894 162.187 79.3431 162.389C79.6474 162.592 79.8504 162.846 80.0026 163.201C80.104 163.353 80.1548 163.556 80.2055 163.709C80.2562 163.861 80.307 164.114 80.307 164.368C80.3577 164.622 80.3577 164.977 80.4084 165.383C80.4084 165.788 80.4591 166.347 80.4591 167.006C80.4591 167.209 80.4591 167.412 80.4591 167.615C80.4591 167.818 80.5099 168.071 80.5606 168.274C80.6113 168.477 80.6621 168.68 80.7635 168.883C80.865 169.086 81.0172 169.238 81.2201 169.34H78.9879C78.8865 169.137 78.785 168.883 78.6836 168.579C78.6328 168.274 78.5821 167.818 78.5314 167.209L78.4806 165.941C78.4806 165.484 78.4299 165.129 78.4299 164.825C78.3792 164.52 78.3285 164.267 78.2777 164.064C78.227 163.861 78.1255 163.658 78.0748 163.556C77.9733 163.404 77.8719 163.303 77.7197 163.15C77.4153 162.897 77.0602 162.745 76.6543 162.745C76.2485 162.694 75.8426 162.694 75.4875 162.694H73.6612V169.39H71.8349V154.425H76.3499ZM73.7627 161.273H75.7412C76.0456 161.273 76.2992 161.273 76.6036 161.223C76.908 161.172 77.1109 161.121 77.2631 161.07C77.7197 160.918 78.0748 160.614 78.3284 160.157C78.5821 159.701 78.7343 159.143 78.7343 158.483C78.7343 157.976 78.6836 157.57 78.5314 157.215C78.3792 156.911 78.1763 156.606 77.9226 156.403C77.669 156.2 77.3646 156.048 77.0094 155.997C76.6543 155.896 76.2485 155.896 75.8426 155.896H73.8134V161.273H73.7627Z" fill="#CDAF71"></path>
  <path d="M88.7283 154.425V169.39H86.902V154.425H88.7283Z" fill="#CDAF71"></path>
  <path d="M100.498 154.425L104.658 169.39H102.73L101.614 165.281H96.8452L95.7292 169.39H93.8014L98.1135 154.425H100.498ZM99.1281 156.353C99.0774 156.606 99.0267 156.911 98.9252 157.215L97.2004 163.759H101.259L99.6354 157.215C99.534 156.86 99.4833 156.606 99.4325 156.403C99.3818 156.2 99.3311 155.896 99.2803 155.592C99.2296 155.845 99.1789 156.099 99.1281 156.353Z" fill="#CDAF71"></path>
  <path d="M122.312 154.425C122.769 154.425 123.225 154.425 123.58 154.475C123.936 154.526 124.24 154.577 124.544 154.628C124.849 154.678 125.052 154.78 125.305 154.881C125.559 154.983 125.762 155.135 125.965 155.236C126.726 155.744 127.233 156.505 127.588 157.519C127.943 158.534 128.095 159.853 128.095 161.476C128.095 161.984 128.095 162.542 128.045 163.15C127.994 163.708 127.943 164.317 127.842 164.875C127.74 165.433 127.588 165.991 127.334 166.499C127.132 167.006 126.827 167.513 126.523 167.919C126.015 168.528 125.457 168.934 124.798 169.086C124.138 169.238 123.428 169.34 122.667 169.34H118.862V154.374H122.312V154.425ZM120.638 167.919H122.211C122.921 167.919 123.53 167.868 123.936 167.716C124.341 167.564 124.696 167.31 125.001 167.006C125.762 166.093 126.168 164.317 126.168 161.628C126.168 160.309 126.066 159.193 125.813 158.432C125.559 157.621 125.204 157.012 124.696 156.606C124.392 156.352 124.037 156.2 123.631 156.099C123.175 155.997 122.566 155.947 121.754 155.947H120.638V167.919Z" fill="#CDAF71"></path>
  <path d="M137.481 154.425L139.307 161.375C139.561 162.389 139.814 163.404 140.068 164.419C140.322 165.433 140.474 166.499 140.575 167.513H140.626C140.727 166.651 140.829 165.788 140.981 164.926C141.133 164.064 141.336 163.252 141.539 162.44L143.568 154.374H146.561V169.34H144.786V158.838C144.786 157.976 144.786 157.316 144.837 156.809C144.887 156.302 144.887 155.845 144.938 155.541H144.837C144.786 155.744 144.735 155.896 144.735 156.048C144.684 156.2 144.684 156.352 144.634 156.505C144.583 156.657 144.583 156.86 144.532 157.063C144.482 157.266 144.431 157.519 144.329 157.824L141.387 169.34H139.662L136.821 158.382C136.77 158.077 136.669 157.824 136.618 157.519C136.568 157.215 136.466 156.91 136.415 156.657C136.365 156.403 136.314 156.149 136.263 155.947C136.212 155.744 136.212 155.591 136.162 155.541H136.06C136.111 156.251 136.162 156.91 136.162 157.621C136.212 158.331 136.212 159.041 136.212 159.701V169.34H134.488V154.374H137.481V154.425Z" fill="#CDAF71"></path>
  <path d="M162.085 164.266C162.034 165.027 161.984 165.788 161.781 166.448C161.578 167.107 161.375 167.665 161.02 168.173C160.665 168.68 160.208 169.035 159.65 169.339C159.092 169.644 158.382 169.745 157.57 169.745C156.454 169.745 155.642 169.492 154.983 169.035C154.374 168.579 153.867 167.97 153.562 167.209C153.258 166.499 153.055 165.636 152.954 164.774C152.852 163.861 152.852 162.998 152.852 162.186C152.852 161.324 152.903 160.411 152.954 159.498C153.055 158.585 153.258 157.722 153.562 156.91C153.867 156.149 154.374 155.49 154.983 154.983C155.642 154.475 156.505 154.222 157.621 154.222C159.041 154.222 160.107 154.628 160.868 155.388C161.578 156.2 161.984 157.316 162.034 158.838H160.208C160.208 158.432 160.157 158.026 160.056 157.671C159.954 157.316 159.853 156.961 159.65 156.657C159.447 156.352 159.193 156.149 158.889 155.947C158.585 155.744 158.179 155.693 157.672 155.693C157.164 155.693 156.758 155.794 156.403 156.048C156.048 156.251 155.795 156.555 155.592 156.91C155.389 157.266 155.186 157.671 155.084 158.128C154.983 158.585 154.881 159.041 154.831 159.548C154.78 160.056 154.78 160.512 154.78 160.969C154.78 161.425 154.78 161.831 154.78 162.186C154.78 162.542 154.78 162.897 154.78 163.353C154.78 163.81 154.831 164.216 154.881 164.672C154.932 165.129 155.034 165.585 155.135 165.991C155.236 166.448 155.389 166.803 155.642 167.158C155.896 167.513 156.15 167.767 156.454 167.97C156.809 168.173 157.215 168.274 157.672 168.274C159.346 168.274 160.259 166.955 160.36 164.317H162.085V164.266Z" fill="#CDAF71"></path>
  <path d="M177 164.266C176.949 165.027 176.899 165.788 176.696 166.448C176.493 167.107 176.29 167.665 175.935 168.173C175.58 168.68 175.123 169.035 174.565 169.339C174.007 169.644 173.297 169.745 172.485 169.745C171.369 169.745 170.557 169.492 169.898 169.035C169.289 168.579 168.782 167.97 168.477 167.209C168.173 166.499 167.97 165.636 167.868 164.774C167.767 163.861 167.767 162.998 167.767 162.186C167.767 161.324 167.818 160.411 167.868 159.498C167.97 158.585 168.173 157.722 168.477 156.91C168.782 156.149 169.289 155.49 169.898 154.983C170.557 154.475 171.42 154.222 172.536 154.222C173.956 154.222 175.022 154.628 175.782 155.388C176.493 156.2 176.899 157.316 176.949 158.838H175.022C175.022 158.432 174.971 158.026 174.869 157.671C174.768 157.316 174.666 156.961 174.463 156.657C174.261 156.352 174.007 156.149 173.703 155.947C173.398 155.744 172.992 155.693 172.485 155.693C171.978 155.693 171.572 155.794 171.217 156.048C170.862 156.251 170.608 156.555 170.405 156.91C170.202 157.266 169.999 157.671 169.898 158.128C169.796 158.585 169.695 159.041 169.644 159.548C169.593 160.056 169.593 160.512 169.593 160.969C169.593 161.425 169.593 161.831 169.593 162.186C169.593 162.542 169.593 162.897 169.593 163.353C169.593 163.81 169.644 164.216 169.695 164.672C169.745 165.129 169.847 165.585 169.948 165.991C170.05 166.448 170.202 166.803 170.456 167.158C170.709 167.513 170.963 167.767 171.267 167.97C171.623 168.173 172.028 168.274 172.485 168.274C174.159 168.274 175.072 166.955 175.174 164.317H177V164.266Z" fill="#CDAF71"></path>
  <path d="M89.4893 62.6019C89.7936 57.0215 89.6415 51.8977 90.4024 46.8753C91.2648 41.1934 96.4901 37.135 102.223 36.9828C106.535 36.8813 110.796 36.9828 115.261 36.9828C115.261 42.2081 115.768 47.1797 115.159 51.9991C114.347 58.0868 109.731 62.0946 103.542 62.6019C99.1281 62.9063 94.6638 62.6019 89.4893 62.6019Z" fill="url(#paint0_linear_31_6564)"></path>
  <path d="M85.6844 0C89.2356 3.55116 92.5838 6.54428 95.5262 9.94325C99.7876 14.8641 99.5847 22.1187 95.1711 26.9381C92.2794 30.1341 89.1341 33.0765 85.7352 36.4755C82.1333 32.7214 78.227 29.3224 75.1831 25.264C71.3783 20.1909 72.4944 13.393 77.0095 8.92863C79.9011 6.08771 82.5898 3.19605 85.6844 0Z" fill="url(#paint1_linear_31_6564)"></path>
  <path d="M56.2098 37.0336C61.2829 37.0336 66.0516 36.6784 70.7189 37.135C77.0095 37.7438 81.4738 42.9691 81.8289 49.6655C82.0319 53.2167 81.9811 56.8186 81.7782 60.3698C81.7275 61.1814 80.6621 62.5512 80.0534 62.5512C75.5383 62.6019 70.9725 62.7541 66.5082 62.1453C60.7249 61.3336 56.6157 56.7171 56.2098 51.0353C55.9562 46.5202 56.2098 41.9544 56.2098 37.0336Z" fill="url(#paint2_linear_31_6564)"></path>
  <path d="M89.8951 127.791C89.9458 121.754 88.6268 115.768 90.9097 110.086C92.9897 104.911 97.2511 102.426 102.781 102.223C106.23 102.121 109.731 102.071 113.181 102.172C113.942 102.223 115.362 103.136 115.362 103.592C115.311 108.716 115.514 113.891 114.652 118.913C113.84 123.682 108.513 127.537 103.542 127.69C99.1281 127.893 94.7145 127.791 89.8951 127.791Z" fill="url(#paint3_linear_31_6564)"></path>
  <path d="M56.1591 101.817C61.9424 102.121 67.3199 101.868 72.5452 102.832C77.2124 103.694 80.6621 107.144 81.3216 112.065C81.9811 117.087 81.8796 122.262 82.1333 127.639C76.6544 127.639 71.6827 128.045 66.8126 127.538C61.08 126.929 56.5649 121.653 56.2098 115.869C56.0069 112.42 56.1591 108.919 56.1591 105.47C56.1591 104.556 56.1591 103.593 56.1591 101.817Z" fill="url(#paint4_linear_31_6564)"></path>
  <path d="M81.7782 94.9173C76.5021 94.9173 71.4798 95.2217 66.4574 94.8159C61.3843 94.41 56.6664 89.2355 56.2605 83.858C55.9561 79.2922 56.2098 74.6757 56.2098 69.8056C61.4858 69.8056 66.5589 69.5012 71.5305 69.907C76.35 70.3129 81.1187 75.2845 81.6767 80.5605C82.1333 85.2277 81.7782 89.9457 81.7782 94.9173Z" fill="url(#paint5_linear_31_6564)"></path>
  <path d="M115.717 69.9579C115.463 75.2339 115.717 80.4084 114.804 85.3801C113.637 91.6707 108.919 94.9682 102.578 94.9682C98.5701 94.9682 94.5623 94.9175 90.5546 94.8667C90.3517 94.8667 90.1995 94.7145 89.4893 94.3594C89.7429 89.3878 89.5907 84.1118 90.4531 79.0387C91.417 73.4076 96.5916 69.7549 102.375 69.7549C106.281 69.7549 110.187 69.7549 114.094 69.7549C114.347 69.7549 114.652 69.8057 115.717 69.9579Z" fill="url(#paint6_linear_31_6564)"></path>
  <path d="M145.902 57.123C145.902 61.6381 146.054 65.6458 145.851 69.6535C145.547 75.5383 140.727 79.9012 134.183 80.2563C131.139 80.4085 128.045 80.4592 125.001 80.2056C124.189 80.1548 122.819 78.8866 122.819 78.1256C122.667 74.473 122.617 70.7696 123.073 67.117C123.834 61.08 128.4 57.2245 134.538 57.123C138.191 57.0723 141.894 57.123 145.902 57.123Z" fill="url(#paint7_linear_31_6564)"></path>
  <path d="M145.902 86.8005C145.902 91.4678 146.105 95.6784 145.851 99.8384C145.496 104.81 141.184 109.021 136.162 109.477C132.509 109.832 128.806 109.782 125.153 109.934C123.631 109.985 122.769 109.528 122.819 107.803C122.972 104.15 122.718 100.396 123.175 96.7945C123.885 90.6561 128.4 86.8513 134.538 86.8005C138.14 86.8005 141.793 86.8005 145.902 86.8005Z" fill="url(#paint8_linear_31_6564)"></path>
  <path d="M48.4987 110.137C43.4764 109.883 38.8599 109.883 34.3448 109.376C30.2864 108.868 26.4308 104.455 25.822 100.295C25.6698 99.3817 25.7206 98.4178 25.7206 97.4539C25.7206 94.0042 25.7206 90.5545 25.7206 86.9019C30.4893 86.9019 35.0043 86.5468 39.4686 87.0034C44.5925 87.5107 48.3973 92.2794 48.4987 97.5046C48.6002 101.512 48.4987 105.469 48.4987 110.137Z" fill="url(#paint9_linear_31_6564)"></path>
  <path d="M48.4987 80.459C43.6793 80.2561 39.1642 80.2561 34.6999 79.7488C30.1341 79.2415 26.3293 74.9801 25.822 70.4143C25.7206 69.5012 25.7713 68.5373 25.7713 67.5734C25.7713 64.2252 25.7713 60.8769 25.7713 57.0214C32.1126 57.7823 38.7077 55.0936 44.1359 59.6087C46.1144 61.2828 47.9407 64.0222 48.2958 66.5588C48.9553 70.9216 48.4987 75.386 48.4987 80.459Z" fill="url(#paint10_linear_31_6564)"></path>
  <defs>
    <linearGradient id="paint0_linear_31_6564" x1="-1.49012e-05" y1="84.8502" x2="176.975" y2="84.8502" gradientUnits="userSpaceOnUse">
      <stop stop-color="#F9E181"></stop>
      <stop offset="0.9988" stop-color="#835C2D"></stop>
    </linearGradient>
    <linearGradient id="paint1_linear_31_6564" x1="-8.97482e-06" y1="84.8502" x2="176.975" y2="84.8502" gradientUnits="userSpaceOnUse">
      <stop stop-color="#F9E181"></stop>
      <stop offset="0.9988" stop-color="#835C2D"></stop>
    </linearGradient>
    <linearGradient id="paint2_linear_31_6564" x1="3.82755e-05" y1="84.8502" x2="176.975" y2="84.8502" gradientUnits="userSpaceOnUse">
      <stop stop-color="#F9E181"></stop>
      <stop offset="0.9988" stop-color="#835C2D"></stop>
    </linearGradient>
    <linearGradient id="paint3_linear_31_6564" x1="1.97187e-05" y1="84.8502" x2="176.975" y2="84.8502" gradientUnits="userSpaceOnUse">
      <stop stop-color="#F9E181"></stop>
      <stop offset="0.9988" stop-color="#835C2D"></stop>
    </linearGradient>
    <linearGradient id="paint4_linear_31_6564" x1="3.06522e-05" y1="84.8503" x2="176.975" y2="84.8503" gradientUnits="userSpaceOnUse">
      <stop stop-color="#F9E181"></stop>
      <stop offset="0.9988" stop-color="#835C2D"></stop>
    </linearGradient>
    <linearGradient id="paint5_linear_31_6564" x1="-1.36147e-06" y1="84.8501" x2="176.975" y2="84.8501" gradientUnits="userSpaceOnUse">
      <stop stop-color="#F9E181"></stop>
      <stop offset="0.9988" stop-color="#835C2D"></stop>
    </linearGradient>
    <linearGradient id="paint6_linear_31_6564" x1="-2.37358e-05" y1="84.8502" x2="176.975" y2="84.8502" gradientUnits="userSpaceOnUse">
      <stop stop-color="#F9E181"></stop>
      <stop offset="0.9988" stop-color="#835C2D"></stop>
    </linearGradient>
    <linearGradient id="paint7_linear_31_6564" x1="2.72989e-05" y1="84.8503" x2="176.975" y2="84.8503" gradientUnits="userSpaceOnUse">
      <stop stop-color="#F9E181"></stop>
      <stop offset="0.9988" stop-color="#835C2D"></stop>
    </linearGradient>
    <linearGradient id="paint8_linear_31_6564" x1="3.0854e-05" y1="84.8502" x2="176.975" y2="84.8502" gradientUnits="userSpaceOnUse">
      <stop stop-color="#F9E181"></stop>
      <stop offset="0.9988" stop-color="#835C2D"></stop>
    </linearGradient>
    <linearGradient id="paint9_linear_31_6564" x1="3.02059e-05" y1="84.8501" x2="176.975" y2="84.8501" gradientUnits="userSpaceOnUse">
      <stop stop-color="#F9E181"></stop>
      <stop offset="0.9988" stop-color="#835C2D"></stop>
    </linearGradient>
    <linearGradient id="paint10_linear_31_6564" x1="7.79599e-06" y1="84.8501" x2="176.975" y2="84.8501" gradientUnits="userSpaceOnUse">
      <stop stop-color="#F9E181"></stop>
      <stop offset="0.9988" stop-color="#835C2D"></stop>
    </linearGradient>
  </defs>
</svg>
