<?xml version="1.0" encoding="UTF-8"?>
<svg xmlns="http://www.w3.org/2000/svg" width="24" height="25" viewBox="0 0 24 25" fill="none">
  <path d="M2.91237 0.55127C1.3386 0.55127 0.0647688 1.82585 0.0645142 3.39414C0.0645142 4.96397 1.33835 6.23829 2.91263 6.23829C4.48258 6.23829 5.75819 4.96397 5.75819 3.39414C5.75819 1.82559 4.48232 0.55127 2.91237 0.55127Z" fill="#CDAF71"></path>
  <path d="M0.456116 8.39551H5.36686V24.1761H0.456116V8.39551Z" fill="#CDAF71"></path>
  <path d="M17.8684 8.00293C15.4796 8.00293 13.8778 9.31107 13.2222 10.5516H13.1565V8.39532H8.44667H8.44641V24.1757H13.3528V16.369C13.3528 14.311 13.7452 12.3175 16.3 12.3175C18.8181 12.3175 18.8517 14.6713 18.8517 16.501V24.1754H23.7589V15.5199C23.7589 11.2713 22.841 8.00293 17.8684 8.00293Z" fill="#CDAF71"></path>
</svg>
